  0
SECTION
  2
HEADER
  9
$ACADVER
  1
AC1032
  9
$ACADMAINTVER
 90
4
  9
$DWGCODEPAGE
  3
ANSI_1252
  9
$LASTSAVEDBY
  1
ezdxf
  9
$REQUIREDVERSIONS
160
0
  9
$INSBASE
 10
0.0
 20
0.0
 30
0.0
  9
$EXTMIN
 10
1e+20
 20
1e+20
 30
1e+20
  9
$EXTMAX
 10
-1e+20
 20
-1e+20
 30
-1e+20
  9
$LIMMIN
 10
0.0
 20
0.0
  9
$LIMMAX
 10
420.0
 20
297.0
  9
$ORTHOMODE
 70
0
  9
$REGENMODE
 70
1
  9
$FILLMODE
 70
1
  9
$QTEXTMODE
 70
0
  9
$MIRRTEXT
 70
1
  9
$LTSCALE
 40
1.0
  9
$ATTMODE
 70
1
  9
$TEXTSIZE
 40
2.5
  9
$TRACEWID
 40
1.0
  9
$TEXTSTYLE
  7
Standard
  9
$CLAYER
  8
0
  9
$CELTYPE
  6
ByLayer
  9
$CECOLOR
 62
256
  9
$CELTSCALE
 40
1.0
  9
$DISPSILH
 70
0
  9
$DIMSCALE
 40
1.0
  9
$DIMASZ
 40
2.5
  9
$DIMEXO
 40
0.625
  9
$DIMDLI
 40
3.75
  9
$DIMRND
 40
0.0
  9
$DIMDLE
 40
0.0
  9
$DIMEXE
 40
1.25
  9
$DIMTP
 40
0.0
  9
$DIMTM
 40
0.0
  9
$DIMTXT
 40
2.5
  9
$DIMCEN
 40
2.5
  9
$DIMTSZ
 40
0.0
  9
$DIMTOL
 70
0
  9
$DIMLIM
 70
0
  9
$DIMTIH
 70
0
  9
$DIMTOH
 70
0
  9
$DIMSE1
 70
0
  9
$DIMSE2
 70
0
  9
$DIMTAD
 70
1
  9
$DIMZIN
 70
8
  9
$DIMBLK
  1

  9
$DIMASO
 70
1
  9
$DIMSHO
 70
1
  9
$DIMPOST
  1

  9
$DIMAPOST
  1

  9
$DIMALT
 70
0
  9
$DIMALTD
 70
3
  9
$DIMALTF
 40
0.03937007874
  9
$DIMLFAC
 40
1.0
  9
$DIMTOFL
 70
1
  9
$DIMTVP
 40
0.0
  9
$DIMTIX
 70
0
  9
$DIMSOXD
 70
0
  9
$DIMSAH
 70
0
  9
$DIMBLK1
  1

  9
$DIMBLK2
  1

  9
$DIMSTYLE
  2
ISO-25
  9
$DIMCLRD
 70
0
  9
$DIMCLRE
 70
0
  9
$DIMCLRT
 70
0
  9
$DIMTFAC
 40
1.0
  9
$DIMGAP
 40
0.625
  9
$DIMJUST
 70
0
  9
$DIMSD1
 70
0
  9
$DIMSD2
 70
0
  9
$DIMTOLJ
 70
0
  9
$DIMTZIN
 70
8
  9
$DIMALTZ
 70
0
  9
$DIMALTTZ
 70
0
  9
$DIMUPT
 70
0
  9
$DIMDEC
 70
2
  9
$DIMTDEC
 70
2
  9
$DIMALTU
 70
2
  9
$DIMALTTD
 70
3
  9
$DIMTXSTY
  7
Standard
  9
$DIMAUNIT
 70
0
  9
$DIMADEC
 70
0
  9
$DIMALTRND
 40
0.0
  9
$DIMAZIN
 70
0
  9
$DIMDSEP
 70
44
  9
$DIMATFIT
 70
3
  9
$DIMFRAC
 70
0
  9
$DIMLDRBLK
  1

  9
$DIMLUNIT
 70
2
  9
$DIMLWD
 70
-2
  9
$DIMLWE
 70
-2
  9
$DIMTMOVE
 70
0
  9
$DIMFXL
 40
1.0
  9
$DIMFXLON
 70
0
  9
$DIMJOGANG
 40
0.785398163397
  9
$DIMTFILL
 70
0
  9
$DIMTFILLCLR
 70
0
  9
$DIMARCSYM
 70
0
  9
$DIMLTYPE
  6

  9
$DIMLTEX1
  6

  9
$DIMLTEX2
  6

  9
$DIMTXTDIRECTION
 70
0
  9
$LUNITS
 70
2
  9
$LUPREC
 70
4
  9
$SKETCHINC
 40
1.0
  9
$FILLETRAD
 40
10.0
  9
$AUNITS
 70
0
  9
$AUPREC
 70
2
  9
$MENU
  1
.
  9
$ELEVATION
 40
0.0
  9
$PELEVATION
 40
0.0
  9
$THICKNESS
 40
0.0
  9
$LIMCHECK
 70
0
  9
$CHAMFERA
 40
0.0
  9
$CHAMFERB
 40
0.0
  9
$CHAMFERC
 40
0.0
  9
$CHAMFERD
 40
0.0
  9
$SKPOLY
 70
0
  9
$TDCREATE
 40
2461230.633900463
  9
$TDUCREATE
 40
2458532.153996898
  9
$TDUPDATE
 40
2461230.6340625
  9
$TDUUPDATE
 40
2458532.1544311
  9
$TDINDWG
 40
0.0
  9
$TDUSRTIMER
 40
0.0
  9
$USRTIMER
 70
1
  9
$ANGBASE
 50
0.0
  9
$ANGDIR
 70
0
  9
$PDMODE
 70
0
  9
$PDSIZE
 40
0.0
  9
$PLINEWID
 40
0.0
  9
$SPLFRAME
 70
0
  9
$SPLINETYPE
 70
6
  9
$SPLINESEGS
 70
8
  9
$HANDSEED
  5
C6
  9
$SURFTAB1
 70
6
  9
$SURFTAB2
 70
6
  9
$SURFTYPE
 70
6
  9
$SURFU
 70
6
  9
$SURFV
 70
6
  9
$UCSBASE
  2

  9
$UCSNAME
  2

  9
$UCSORG
 10
0.0
 20
0.0
 30
0.0
  9
$UCSXDIR
 10
1.0
 20
0.0
 30
0.0
  9
$UCSYDIR
 10
0.0
 20
1.0
 30
0.0
  9
$UCSORTHOREF
  2

  9
$UCSORTHOVIEW
 70
0
  9
$UCSORGTOP
 10
0.0
 20
0.0
 30
0.0
  9
$UCSORGBOTTOM
 10
0.0
 20
0.0
 30
0.0
  9
$UCSORGLEFT
 10
0.0
 20
0.0
 30
0.0
  9
$UCSORGRIGHT
 10
0.0
 20
0.0
 30
0.0
  9
$UCSORGFRONT
 10
0.0
 20
0.0
 30
0.0
  9
$UCSORGBACK
 10
0.0
 20
0.0
 30
0.0
  9
$PUCSBASE
  2

  9
$PUCSNAME
  2

  9
$PUCSORG
 10
0.0
 20
0.0
 30
0.0
  9
$PUCSXDIR
 10
1.0
 20
0.0
 30
0.0
  9
$PUCSYDIR
 10
0.0
 20
1.0
 30
0.0
  9
$PUCSORTHOREF
  2

  9
$PUCSORTHOVIEW
 70
0
  9
$PUCSORGTOP
 10
0.0
 20
0.0
 30
0.0
  9
$PUCSORGBOTTOM
 10
0.0
 20
0.0
 30
0.0
  9
$PUCSORGLEFT
 10
0.0
 20
0.0
 30
0.0
  9
$PUCSORGRIGHT
 10
0.0
 20
0.0
 30
0.0
  9
$PUCSORGFRONT
 10
0.0
 20
0.0
 30
0.0
  9
$PUCSORGBACK
 10
0.0
 20
0.0
 30
0.0
  9
$USERI1
 70
0
  9
$USERI2
 70
0
  9
$USERI3
 70
0
  9
$USERI4
 70
0
  9
$USERI5
 70
0
  9
$USERR1
 40
0.0
  9
$USERR2
 40
0.0
  9
$USERR3
 40
0.0
  9
$USERR4
 40
0.0
  9
$USERR5
 40
0.0
  9
$WORLDVIEW
 70
1
  9
$SHADEDGE
 70
3
  9
$SHADEDIF
 70
70
  9
$TILEMODE
 70
1
  9
$MAXACTVP
 70
64
  9
$PINSBASE
 10
0.0
 20
0.0
 30
0.0
  9
$PLIMCHECK
 70
0
  9
$PEXTMIN
 10
1e+20
 20
1e+20
 30
1e+20
  9
$PEXTMAX
 10
-1e+20
 20
-1e+20
 30
-1e+20
  9
$PLIMMIN
 10
0.0
 20
0.0
  9
$PLIMMAX
 10
420.0
 20
297.0
  9
$UNITMODE
 70
0
  9
$VISRETAIN
 70
1
  9
$PLINEGEN
 70
0
  9
$PSLTSCALE
 70
1
  9
$TREEDEPTH
 70
3020
  9
$CMLSTYLE
  2
Standard
  9
$CMLJUST
 70
0
  9
$CMLSCALE
 40
20.0
  9
$PROXYGRAPHICS
 70
1
  9
$MEASUREMENT
 70
1
  9
$CELWEIGHT
370
-1
  9
$ENDCAPS
280
0
  9
$JOINSTYLE
280
0
  9
$LWDISPLAY
290
0
  9
$INSUNITS
 70
6
  9
$HYPERLINKBASE
  1

  9
$STYLESHEET
  1

  9
$XEDIT
290
1
  9
$CEPSNTYPE
380
0
  9
$PSTYLEMODE
290
1
  9
$FINGERPRINTGUID
  2
{5DBF3E14-D448-413F-B280-5A731A09E705}
  9
$VERSIONGUID
  2
{B8910203-0FD0-4771-97CE-556B41A3E259}
  9
$EXTNAMES
290
1
  9
$PSVPSCALE
 40
0.0
  9
$OLESTARTUP
290
0
  9
$SORTENTS
280
127
  9
$INDEXCTL
280
0
  9
$HIDETEXT
280
1
  9
$XCLIPFRAME
280
1
  9
$HALOGAP
280
0
  9
$OBSCOLOR
 70
257
  9
$OBSLTYPE
280
0
  9
$INTERSECTIONDISPLAY
280
0
  9
$INTERSECTIONCOLOR
 70
257
  9
$DIMASSOC
280
2
  9
$PROJECTNAME
  1

  9
$CAMERADISPLAY
290
0
  9
$LENSLENGTH
 40
50.0
  9
$CAMERAHEIGHT
 40
0.0
  9
$STEPSPERSEC
 40
24.0
  9
$STEPSIZE
 40
100.0
  9
$3DDWFPREC
 40
2.0
  9
$PSOLWIDTH
 40
0.005
  9
$PSOLHEIGHT
 40
0.08
  9
$LOFTANG1
 40
1.570796326795
  9
$LOFTANG2
 40
1.570796326795
  9
$LOFTMAG1
 40
0.0
  9
$LOFTMAG2
 40
0.0
  9
$LOFTPARAM
 70
7
  9
$LOFTNORMALS
280
1
  9
$LATITUDE
 40
37.795
  9
$LONGITUDE
 40
-122.394
  9
$NORTHDIRECTION
 40
0.0
  9
$TIMEZONE
 70
-8000
  9
$LIGHTGLYPHDISPLAY
280
1
  9
$TILEMODELIGHTSYNCH
280
1
  9
$CMATERIAL
347
20
  9
$SOLIDHIST
280
0
  9
$SHOWHIST
280
1
  9
$DWFFRAME
280
2
  9
$DGNFRAME
280
2
  9
$REALWORLDSCALE
290
1
  9
$INTERFERECOLOR
 62
256
  9
$CSHADOW
280
0
  9
$SHADOWPLANELOCATION
 40
0.0
  0
ENDSEC
  0
SECTION
  2
CLASSES
  0
CLASS
  1
ACDBDICTIONARYWDFLT
  2
AcDbDictionaryWithDefault
  3
ObjectDBX Classes
 90
0
 91
0
280
0
281
0
  0
CLASS
  1
SUN
  2
AcDbSun
  3
SCENEOE
 90
1153
 91
0
280
0
281
0
  0
CLASS
  1
VISUALSTYLE
  2
AcDbVisualStyle
  3
ObjectDBX Classes
 90
4095
 91
0
280
0
281
0
  0
CLASS
  1
MATERIAL
  2
AcDbMaterial
  3
ObjectDBX Classes
 90
1153
 91
0
280
0
281
0
  0
CLASS
  1
SCALE
  2
AcDbScale
  3
ObjectDBX Classes
 90
1153
 91
0
280
0
281
0
  0
CLASS
  1
TABLESTYLE
  2
AcDbTableStyle
  3
ObjectDBX Classes
 90
4095
 91
0
280
0
281
0
  0
CLASS
  1
MLEADERSTYLE
  2
AcDbMLeaderStyle
  3
ACDB_MLEADERSTYLE_CLASS
 90
4095
 91
0
280
0
281
0
  0
CLASS
  1
DICTIONARYVAR
  2
AcDbDictionaryVar
  3
ObjectDBX Classes
 90
0
 91
0
280
0
281
0
  0
CLASS
  1
CELLSTYLEMAP
  2
AcDbCellStyleMap
  3
ObjectDBX Classes
 90
1152
 91
0
280
0
281
0
  0
CLASS
  1
MENTALRAYRENDERSETTINGS
  2
AcDbMentalRayRenderSettings
  3
SCENEOE
 90
1024
 91
0
280
0
281
0
  0
CLASS
  1
ACDBDETAILVIEWSTYLE
  2
AcDbDetailViewStyle
  3
ObjectDBX Classes
 90
1025
 91
0
280
0
281
0
  0
CLASS
  1
ACDBSECTIONVIEWSTYLE
  2
AcDbSectionViewStyle
  3
ObjectDBX Classes
 90
1025
 91
0
280
0
281
0
  0
CLASS
  1
RASTERVARIABLES
  2
AcDbRasterVariables
  3
ISM
 90
0
 91
0
280
0
281
0
  0
CLASS
  1
ACDBPLACEHOLDER
  2
AcDbPlaceHolder
  3
ObjectDBX Classes
 90
0
 91
0
280
0
281
0
  0
CLASS
  1
LAYOUT
  2
AcDbLayout
  3
ObjectDBX Classes
 90
0
 91
0
280
0
281
0
  0
ENDSEC
  0
SECTION
  2
TABLES
  0
TABLE
  2
VPORT
  5
8
330
0
100
AcDbSymbolTable
 70
1
  0
VPORT
  5
23
330
8
100
AcDbSymbolTableRecord
100
AcDbViewportTableRecord
  2
*Active
 70
0
 10
0.0
 20
0.0
 11
1.0
 21
1.0
 12
0.0
 22
0.0
 13
0.0
 23
0.0
 14
0.5
 24
0.5
 15
0.5
 25
0.5
 16
0.0
 26
0.0
 36
1.0
 17
0.0
 27
0.0
 37
0.0
 40
1000.0
 41
1.34
 42
50.0
 43
0.0
 44
0.0
 50
0.0
 51
0.0
 71
0
 72
1000
 73
1
 74
3
 75
0
 76
0
 77
0
 78
0
281
0
 65
0
146
0.0
  0
ENDTAB
  0
TABLE
  2
LTYPE
  5
2
330
0
100
AcDbSymbolTable
 70
3
  0
LTYPE
  5
24
330
2
100
AcDbSymbolTableRecord
100
AcDbLinetypeTableRecord
  2
ByBlock
 70
0
  3

 72
65
 73
0
 40
0.0
  0
LTYPE
  5
25
330
2
100
AcDbSymbolTableRecord
100
AcDbLinetypeTableRecord
  2
ByLayer
 70
0
  3

 72
65
 73
0
 40
0.0
  0
LTYPE
  5
26
330
2
100
AcDbSymbolTableRecord
100
AcDbLinetypeTableRecord
  2
Continuous
 70
0
  3

 72
65
 73
0
 40
0.0
  0
ENDTAB
  0
TABLE
  2
LAYER
  5
1
330
0
100
AcDbSymbolTable
 70
7
  0
LAYER
  5
27
330
1
100
AcDbSymbolTableRecord
100
AcDbLayerTableRecord
  2
0
 70
0
 62
7
  6
Continuous
370
-3
390
13
347
21
  0
LAYER
  5
28
330
1
100
AcDbSymbolTableRecord
100
AcDbLayerTableRecord
  2
Defpoints
 70
0
 62
7
  6
Continuous
290
0
370
-3
390
13
347
21
  0
LAYER
  5
2F
330
1
100
AcDbSymbolTableRecord
100
AcDbLayerTableRecord
  2
PTSP_KDB
 70
0
 62
1
  6
Continuous
370
-3
390
13
347
21
  0
LAYER
  5
30
330
1
100
AcDbSymbolTableRecord
100
AcDbLayerTableRecord
  2
PTSP_KDH
 70
0
 62
3
  6
Continuous
370
-3
390
13
347
21
  0
LAYER
  5
31
330
1
100
AcDbSymbolTableRecord
100
AcDbLayerTableRecord
  2
PTSP_PSU_JALAN
 70
0
 62
5
  6
Continuous
370
-3
390
13
347
21
  0
LAYER
  5
32
330
1
100
AcDbSymbolTableRecord
100
AcDbLayerTableRecord
  2
PTSP_PSU_MAKAM
 70
0
 62
2
  6
Continuous
370
-3
390
13
347
21
  0
LAYER
  5
33
330
1
100
AcDbSymbolTableRecord
100
AcDbLayerTableRecord
  2
PTSP_BATAS_LAHAN
 70
0
 62
7
  6
Continuous
370
-3
390
13
347
21
  0
ENDTAB
  0
TABLE
  2
STYLE
  5
5
330
0
100
AcDbSymbolTable
 70
1
  0
STYLE
  5
29
330
5
100
AcDbSymbolTableRecord
100
AcDbTextStyleTableRecord
  2
Standard
 70
0
 40
0.0
 41
1.0
 50
0.0
 71
0
 42
2.5
  3
txt
  4

  0
ENDTAB
  0
TABLE
  2
VIEW
  5
7
330
0
100
AcDbSymbolTable
 70
0
  0
ENDTAB
  0
TABLE
  2
UCS
  5
6
330
0
100
AcDbSymbolTable
 70
0
  0
ENDTAB
  0
TABLE
  2
APPID
  5
3
330
0
100
AcDbSymbolTable
 70
3
  0
APPID
  5
2A
330
3
100
AcDbSymbolTableRecord
100
AcDbRegAppTableRecord
  2
ACAD
 70
0
  0
APPID
  5
C3
330
3
100
AcDbSymbolTableRecord
100
AcDbRegAppTableRecord
  2
HATCHBACKGROUNDCOLOR
 70
0
  0
APPID
  5
C4
330
3
100
AcDbSymbolTableRecord
100
AcDbRegAppTableRecord
  2
EZDXF
 70
0
  0
ENDTAB
  0
TABLE
  2
DIMSTYLE
  5
4
330
0
100
AcDbSymbolTable
 70
1
100
AcDbDimStyleTable
  0
DIMSTYLE
105
2B
330
4
100
AcDbSymbolTableRecord
100
AcDbDimStyleTableRecord
  2
Standard
 70
0
 40
1.0
 41
2.5
 42
0.625
 43
3.75
 44
1.25
 45
0.0
 46
0.0
 47
0.0
 48
0.0
 49
2.5
140
2.5
141
2.5
142
0.0
143
0.03937007874
144
1.0
145
0.0
146
1.0
147
0.625
148
0.0
 69
0
 70
0
 71
0
 72
0
 73
0
 74
0
 75
0
 76
0
 77
1
 78
8
 79
3
170
0
171
3
172
1
173
0
174
0
175
0
176
0
177
0
178
0
179
2
271
2
272
2
273
2
274
3
275
0
276
0
277
2
278
44
279
0
280
0
281
0
282
0
283
0
284
8
285
0
286
0
288
0
289
3
290
0
371
-2
372
-2
  0
ENDTAB
  0
TABLE
  2
BLOCK_RECORD
  5
9
330
0
100
AcDbSymbolTable
 70
2
  0
BLOCK_RECORD
  5
17
330
9
100
AcDbSymbolTableRecord
100
AcDbBlockTableRecord
  2
*Model_Space
340
1A
 70
0
280
1
281
0
  0
BLOCK_RECORD
  5
1B
330
9
100
AcDbSymbolTableRecord
100
AcDbBlockTableRecord
  2
*Paper_Space
340
1E
 70
0
280
1
281
0
  0
ENDTAB
  0
ENDSEC
  0
SECTION
  2
BLOCKS
  0
BLOCK
  5
18
330
17
100
AcDbEntity
  8
0
100
AcDbBlockBegin
  2
*Model_Space
 70
0
 10
0.0
 20
0.0
 30
0.0
  3
*Model_Space
  1

  0
ENDBLK
  5
19
330
17
100
AcDbEntity
  8
0
100
AcDbBlockEnd
  0
BLOCK
  5
1C
330
1B
100
AcDbEntity
  8
0
100
AcDbBlockBegin
  2
*Paper_Space
 70
0
 10
0.0
 20
0.0
 30
0.0
  3
*Paper_Space
  1

  0
ENDBLK
  5
1D
330
1B
100
AcDbEntity
  8
0
100
AcDbBlockEnd
  0
ENDSEC
  0
SECTION
  2
ENTITIES
  0
LWPOLYLINE
  5
34
330
17
100
AcDbEntity
  8
PTSP_BATAS_LAHAN
100
AcDbPolyline
 90
18
 70
0
 10
130.74603533432776
 20
20.71719480271422
 10
98.86961096370838
 20
16.639040823112673
 10
129.92202851495097
 20
24.612435633674068
 10
109.30948115057845
 20
66.4559273069934
 10
35.895597374167394
 20
107.79027267653059
 10
20.79565733303548
 20
104.16359649301658
 10
25.536514618322443
 20
135.91027181110383
 10
19.00838294245633
 20
111.86023046325836
 10
-16.242661547437287
 20
102.43000321799984
 10
-91.61837552267068
 20
48.93639518120515
 10
-133.8239807475541
 20
-4.504645296030075
 10
-119.23226776536357
 20
-34.59264037311689
 10
-112.0178783209676
 20
-70.36583547357448
 10
-82.70630981543634
 20
-99.24481940676685
 10
-71.45732737586756
 20
-98.20254580019774
 10
-61.74511554668009
 20
-124.44916103425662
 10
-9.775679743118744
 20
-114.72563943074117
 10
95.12234033927186
 20
-76.52230780816805
  0
LWPOLYLINE
  5
35
330
17
100
AcDbEntity
  8
PTSP_PSU_JALAN
100
AcDbPolyline
 90
6
 70
0
 10
130.74603533432776
 20
20.71719480271422
 10
129.02988872954333
 20
16.032749736593132
 10
119.59347877394944
 20
16.75088066044803
 10
109.99820030843203
 20
16.997401385924388
 10
100.40297210082761
 20
16.755200464328684
 10
98.87235885062204
 20
16.639392377785875
  0
LWPOLYLINE
  5
36
330
17
100
AcDbEntity
  8
PTSP_PSU_JALAN
100
AcDbPolyline
 90
72
 70
0
 10
129.92202851495097
 20
24.612435633674068
 10
98.87040410303631
 20
16.63924447917233
 10
90.79658634219346
 20
16.028369468222966
 10
81.16869177544332
 20
14.829319421277678
 10
71.51046985089775
 20
13.178924194074426
 10
61.81500737492725
 20
11.10662526336277
 10
52.077344114639786
 20
8.650361346137503
 10
42.29425809218396
 20
5.856221880311894
 10
32.46389462588927
 20
2.7777856018597133
 10
22.585346528932956
 20
-0.5248353651843425
 10
12.658268550406827
 20
-3.9861871329891776
 10
-7.317421933876032
 20
-11.096121153094707
 10
-7.3660962748126675
 20
-11.1132690963992
 10
-17.36609627481267
 20
-14.600047154647857
 10
-17.463424309418873
 20
-14.633283160249754
 10
-27.463424309418873
 20
-17.976508232020805
 10
-27.609238597005195
 20
-18.023709247729514
 10
-37.609238597005195
 20
-21.155268206874002
 10
-37.802978272715535
 20
-21.213260388948065
 10
-47.802978272715535
 20
-24.069352484440245
 10
-48.043338888736876
 20
-24.13397503645719
 10
-58.043338888736876
 20
-26.656411735662534
 10
-58.3278564829197
 20
-26.722678579108376
 10
-68.3278564829197
 20
-28.86006907063748
 10
-68.65249341771478
 20
-28.9224721803818
 10
-78.65249341771478
 20
-30.631270383712486
 10
-79.0113242815404
 20
-30.68424527701353
 10
-89.0113242815404
 20
-31.929637027652554
 10
-89.39643525657458
 20
-31.968163932368835
 10
-99.39643525657458
 20
-32.72477626750481
 10
-99.79812982521864
 20
-32.74502953076537
 10
-109.79812982521864
 20
-32.99744762479648
 10
-110.2054672250142
 20
-32.997356019284716
 10
-120.12958138636374
 20
-32.742386887168536
 10
-128.2026901938045
 20
-16.095701309434602
 10
-119.59347877394944
 20
-16.75088066044803
 10
-109.99820030843203
 20
-16.997401385924388
 10
-100.40297210082761
 20
-16.755200464328684
 10
-90.79658634219346
 20
-16.028369468222966
 10
-81.16869177544332
 20
-14.829319421277678
 10
-71.51046985089775
 20
-13.178924194074426
 10
-61.81500737492725
 20
-11.10662526336277
 10
-52.077344114639786
 20
-8.650361346137503
 10
-42.29425809218396
 20
-5.856221880311894
 10
-32.46389462588927
 20
-2.7777856018597133
 10
-22.585346528932956
 20
0.5248353651843425
 10
-12.658268550406827
 20
3.9861871329891776
 10
7.317421933876032
 20
11.096121153094707
 10
7.3660962748126675
 20
11.1132690963992
 10
17.36609627481267
 20
14.600047154647857
 10
17.463424309418873
 20
14.633283160249754
 10
27.463424309418873
 20
17.976508232020805
 10
27.609238597005195
 20
18.023709247729514
 10
37.609238597005195
 20
21.155268206874002
 10
37.802978272715535
 20
21.213260388948065
 10
47.802978272715535
 20
24.069352484440245
 10
48.043338888736876
 20
24.13397503645719
 10
58.043338888736876
 20
26.656411735662534
 10
58.3278564829197
 20
26.722678579108376
 10
68.3278564829197
 20
28.86006907063748
 10
68.65249341771478
 20
28.9224721803818
 10
78.65249341771478
 20
30.631270383712486
 10
79.0113242815404
 20
30.68424527701353
 10
89.0113242815404
 20
31.929637027652554
 10
89.39643525657458
 20
31.968163932368835
 10
99.39643525657458
 20
32.72477626750481
 10
99.79812982521864
 20
32.74502953076537
 10
109.79812982521864
 20
32.99744762479648
 10
110.2054672250142
 20
32.997356019284716
 10
120.2054672250142
 20
32.740437237446045
 10
120.60706169112345
 20
32.72001022543278
 10
126.13540174020538
 20
32.299291756702225
  0
LWPOLYLINE
  5
37
330
17
100
AcDbEntity
  8
PTSP_KDH
100
AcDbPolyline
 90
61
 70
0
 10
-48.708540317633876
 20
78.70821007196626
 10
-45.85270966048386
 20
79.42355841209691
 10
-42.940514209886814
 20
79.85554180016591
 10
-40.0
 20
80.0
 10
-37.0594857901132
 20
79.85554180016591
 10
-34.147290339516154
 20
79.42355841209691
 10
-31.29145968236614
 20
78.70821007196626
 10
-28.5194970290473
 20
77.7163859753386
 10
-25.858097895220073
 20
76.45763793045066
 10
-23.332893009411944
 20
74.94408836907637
 10
-20.96820147509063
 20
73.1903136008821
 10
-18.78679656440358
 20
71.21320343559643
 10
-16.809686399117904
 20
69.03179852490938
 10
-15.055911630923642
 20
66.66710699058807
 10
-13.542362069549355
 20
64.14190210477994
 10
-12.283614024661404
 20
61.48050297095271
 10
-11.291789928033737
 20
58.708540317633876
 10
-10.57644158790309
 20
55.85270966048386
 10
-10.14445819983409
 20
52.940514209886814
 10
-10.0
 20
50.0
 10
-10.14445819983409
 20
47.05948579011318
 10
-10.576441587903087
 20
44.147290339516154
 10
-11.291789928033737
 20
41.29145968236613
 10
-12.283614024661397
 20
38.51949702904731
 10
-13.542362069549348
 20
35.85809789522007
 10
-15.055911630923642
 20
33.33289300941193
 10
-16.80968639911789
 20
30.968201475090634
 10
-18.786796564403573
 20
28.786796564403573
 10
-20.968201475090634
 20
26.809686399117894
 10
-23.332893009411933
 20
25.055911630923642
 10
-25.858097895220066
 20
23.542362069549352
 10
-28.519497029047304
 20
22.283614024661397
 10
-31.29145968236613
 20
21.291789928033733
 10
-34.14729033951615
 20
20.576441587903087
 10
-37.05948579011318
 20
20.144458199834094
 10
-40.0
 20
20.0
 10
-42.94051420988682
 20
20.14445819983409
 10
-45.852709660483846
 20
20.576441587903087
 10
-48.70854031763386
 20
21.291789928033733
 10
-51.48050297095269
 20
22.283614024661397
 10
-54.14190210477993
 20
23.54236206954935
 10
-56.66710699058806
 20
25.05591163092364
 10
-59.03179852490936
 20
26.809686399117886
 10
-61.21320343559643
 20
28.786796564403573
 10
-63.19031360088211
 20
30.968201475090634
 10
-64.94408836907635
 20
33.33289300941193
 10
-66.45763793045064
 20
35.85809789522007
 10
-67.7163859753386
 20
38.5194970290473
 10
-68.70821007196626
 20
41.291459682366124
 10
-69.42355841209691
 20
44.14729033951614
 10
-69.85554180016591
 20
47.05948579011317
 10
-70.0
 20
50.0
 10
-69.85554180016591
 20
52.940514209886814
 10
-69.42355841209691
 20
55.85270966048385
 10
-68.70821007196626
 20
58.70854031763386
 10
-67.71638597533861
 20
61.48050297095269
 10
-66.45763793045066
 20
64.14190210477993
 10
-64.94408836907637
 20
66.66710699058805
 10
-63.190313600882114
 20
69.03179852490936
 10
-62.98761424515131
 20
69.25544280014901
 10
-50.64379113087747
 20
78.01576625880912
  0
LWPOLYLINE
  5
38
330
17
100
AcDbEntity
  8
PTSP_PSU_MAKAM
100
AcDbPolyline
 90
64
 70
0
 10
83.92350839330521
 20
-67.25711693136157
 10
83.09698831278217
 20
-69.56708580912725
 10
82.04803160870887
 20
-71.78491842064994
 10
80.78674030756363
 20
-73.88925582549005
 10
79.32526133406843
 20
-75.85983210409114
 10
77.67766952966369
 20
-77.67766952966369
 10
75.85983210409114
 20
-79.32526133406841
 10
73.88925582549005
 20
-80.78674030756363
 10
71.78491842064994
 20
-82.04803160870887
 10
69.56708580912725
 20
-83.09698831278217
 10
67.25711693136157
 20
-83.92350839330523
 10
64.87725805040321
 20
-84.51963201008076
 10
62.45042850823902
 20
-84.87961816680492
 10
60.0
 20
-85.0
 10
57.549571491760986
 20
-84.87961816680493
 10
55.122741949596794
 20
-84.51963201008076
 10
52.74288306863845
 20
-83.92350839330523
 10
50.43291419087276
 20
-83.09698831278217
 10
48.215081579350056
 20
-82.04803160870887
 10
46.11074417450995
 20
-80.78674030756363
 10
44.14016789590887
 20
-79.32526133406843
 10
42.32233047033631
 20
-77.67766952966369
 10
40.67473866593157
 20
-75.85983210409114
 10
39.21325969243637
 20
-73.88925582549005
 10
37.951968391291125
 20
-71.78491842064994
 10
36.90301168721783
 20
-69.56708580912725
 10
36.07649160669478
 20
-67.25711693136157
 10
35.48036798991924
 20
-64.87725805040321
 10
35.12038183319508
 20
-62.45042850823902
 10
35.0
 20
-60.0
 10
35.120381833195076
 20
-57.549571491760986
 10
35.48036798991924
 20
-55.122741949596794
 10
36.07649160669477
 20
-52.74288306863845
 10
36.90301168721783
 20
-50.43291419087276
 10
37.951968391291125
 20
-48.215081579350056
 10
39.21325969243637
 20
-46.11074417450995
 10
40.67473866593157
 20
-44.14016789590887
 10
42.32233047033631
 20
-42.32233047033631
 10
44.14016789590885
 20
-40.674738665931585
 10
46.110744174509946
 20
-39.21325969243637
 10
48.215081579350056
 20
-37.951968391291125
 10
50.432914190872744
 20
-36.90301168721784
 10
52.74288306863844
 20
-36.07649160669478
 10
55.12274194959679
 20
-35.480367989919245
 10
57.549571491760986
 20
-35.120381833195076
 10
60.0
 20
-35.0
 10
62.450428508239
 20
-35.120381833195076
 10
64.87725805040321
 20
-35.48036798991924
 10
67.25711693136155
 20
-36.07649160669477
 10
69.56708580912725
 20
-36.903011687217834
 10
71.78491842064994
 20
-37.951968391291125
 10
73.88925582549004
 20
-39.21325969243637
 10
75.85983210409114
 20
-40.67473866593158
 10
77.67766952966369
 20
-42.32233047033631
 10
79.32526133406841
 20
-44.14016789590885
 10
80.78674030756363
 20
-46.110744174509946
 10
82.04803160870887
 20
-48.215081579350056
 10
83.09698831278216
 20
-50.43291419087274
 10
83.92350839330521
 20
-52.742883068638434
 10
84.51963201008076
 20
-55.12274194959678
 10
84.87961816680493
 20
-57.549571491760986
 10
85.0
 20
-60.0
 10
84.87961816680493
 20
-62.450428508239014
 10
84.51963201008076
 20
-64.87725805040321
  0
LWPOLYLINE
  5
39
330
17
100
AcDbEntity
  8
PTSP_KDB
100
AcDbPolyline
 90
4
 70
0
 10
-113.51151855076118
 20
-15.7157009603075
 10
-107.53435036221072
 20
-16.23863541679345
 10
-106.48848144923882
 20
-4.284299039692501
 10
-112.46564963778928
 20
-3.761364583206552
  0
LWPOLYLINE
  5
3A
330
17
100
AcDbEntity
  8
PTSP_KDB
100
AcDbPolyline
 90
4
 70
0
 10
-112.46564963778928
 20
-1.2386354167934481
 10
-106.48848144923882
 20
-0.7157009603074993
 10
-107.53435036221072
 20
11.238635416793448
 10
-113.51151855076118
 20
10.7157009603075
  0
LWPOLYLINE
  5
3B
330
17
100
AcDbEntity
  8
PTSP_KDB
100
AcDbPolyline
 90
4
 70
0
 10
-103.51151855076118
 20
-60.7157009603075
 10
-97.53435036221072
 20
-61.23863541679345
 10
-96.48848144923882
 20
-49.2842990396925
 10
-102.46564963778928
 20
-48.76136458320655
  0
LWPOLYLINE
  5
3C
330
17
100
AcDbEntity
  8
PTSP_KDB
100
AcDbPolyline
 90
4
 70
0
 10
-103.51151855076118
 20
-45.7157009603075
 10
-97.53435036221072
 20
-46.23863541679345
 10
-96.48848144923882
 20
-34.2842990396925
 10
-102.46564963778928
 20
-33.76136458320655
  0
LWPOLYLINE
  5
3D
330
17
100
AcDbEntity
  8
PTSP_KDB
100
AcDbPolyline
 90
4
 70
0
 10
-103.51151855076118
 20
-15.7157009603075
 10
-97.53435036221072
 20
-16.23863541679345
 10
-96.48848144923882
 20
-4.284299039692501
 10
-102.46564963778928
 20
-3.761364583206552
  0
LWPOLYLINE
  5
3E
330
17
100
AcDbEntity
  8
PTSP_KDB
100
AcDbPolyline
 90
4
 70
0
 10
-102.46564963778928
 20
-1.2386354167934481
 10
-96.48848144923882
 20
-0.7157009603074993
 10
-97.53435036221072
 20
11.238635416793448
 10
-103.51151855076118
 20
10.7157009603075
  0
LWPOLYLINE
  5
3F
330
17
100
AcDbEntity
  8
PTSP_KDB
100
AcDbPolyline
 90
4
 70
0
 10
-93.51151855076118
 20
-75.7157009603075
 10
-87.53435036221072
 20
-76.23863541679344
 10
-86.48848144923882
 20
-64.2842990396925
 10
-92.46564963778928
 20
-63.76136458320655
  0
LWPOLYLINE
  5
40
330
17
100
AcDbEntity
  8
PTSP_KDB
100
AcDbPolyline
 90
4
 70
0
 10
-93.51151855076118
 20
-60.7157009603075
 10
-87.53435036221072
 20
-61.23863541679345
 10
-86.48848144923882
 20
-49.2842990396925
 10
-92.46564963778928
 20
-48.76136458320655
  0
LWPOLYLINE
  5
41
330
17
100
AcDbEntity
  8
PTSP_KDB
100
AcDbPolyline
 90
4
 70
0
 10
-93.51151855076118
 20
-45.7157009603075
 10
-87.53435036221072
 20
-46.23863541679345
 10
-86.48848144923882
 20
-34.2842990396925
 10
-92.46564963778928
 20
-33.76136458320655
  0
LWPOLYLINE
  5
42
330
17
100
AcDbEntity
  8
PTSP_KDB
100
AcDbPolyline
 90
4
 70
0
 10
-92.46564963778928
 20
-1.2386354167934481
 10
-86.48848144923882
 20
-0.7157009603074993
 10
-87.53435036221072
 20
11.238635416793448
 10
-93.51151855076118
 20
10.7157009603075
  0
LWPOLYLINE
  5
43
330
17
100
AcDbEntity
  8
PTSP_KDB
100
AcDbPolyline
 90
4
 70
0
 10
-92.46564963778928
 20
13.761364583206552
 10
-86.48848144923882
 20
14.2842990396925
 10
-87.53435036221072
 20
26.23863541679345
 10
-93.51151855076118
 20
25.7157009603075
  0
LWPOLYLINE
  5
44
330
17
100
AcDbEntity
  8
PTSP_KDB
100
AcDbPolyline
 90
4
 70
0
 10
-83.51151855076118
 20
-75.7157009603075
 10
-77.53435036221072
 20
-76.23863541679344
 10
-76.48848144923882
 20
-64.2842990396925
 10
-82.46564963778928
 20
-63.76136458320655
  0
LWPOLYLINE
  5
45
330
17
100
AcDbEntity
  8
PTSP_KDB
100
AcDbPolyline
 90
4
 70
0
 10
-83.51151855076118
 20
-60.7157009603075
 10
-77.53435036221072
 20
-61.23863541679345
 10
-76.48848144923882
 20
-49.2842990396925
 10
-82.46564963778928
 20
-48.76136458320655
  0
LWPOLYLINE
  5
46
330
17
100
AcDbEntity
  8
PTSP_KDB
100
AcDbPolyline
 90
4
 70
0
 10
-83.51151855076118
 20
-45.7157009603075
 10
-77.53435036221072
 20
-46.23863541679345
 10
-76.48848144923882
 20
-34.2842990396925
 10
-82.46564963778928
 20
-33.76136458320655
  0
LWPOLYLINE
  5
47
330
17
100
AcDbEntity
  8
PTSP_KDB
100
AcDbPolyline
 90
4
 70
0
 10
-82.46564963778928
 20
-1.2386354167934481
 10
-76.48848144923882
 20
-0.7157009603074993
 10
-77.53435036221072
 20
11.238635416793448
 10
-83.51151855076118
 20
10.7157009603075
  0
LWPOLYLINE
  5
48
330
17
100
AcDbEntity
  8
PTSP_KDB
100
AcDbPolyline
 90
4
 70
0
 10
-82.46564963778928
 20
13.761364583206552
 10
-76.48848144923882
 20
14.2842990396925
 10
-77.53435036221072
 20
26.23863541679345
 10
-83.51151855076118
 20
25.7157009603075
  0
LWPOLYLINE
  5
49
330
17
100
AcDbEntity
  8
PTSP_KDB
100
AcDbPolyline
 90
4
 70
0
 10
-82.46564963778928
 20
28.76136458320655
 10
-76.48848144923882
 20
29.2842990396925
 10
-77.53435036221072
 20
41.23863541679345
 10
-83.51151855076118
 20
40.7157009603075
  0
LWPOLYLINE
  5
4A
330
17
100
AcDbEntity
  8
PTSP_KDB
100
AcDbPolyline
 90
4
 70
0
 10
-73.51151855076118
 20
-90.7157009603075
 10
-67.53435036221072
 20
-91.23863541679344
 10
-66.48848144923882
 20
-79.2842990396925
 10
-72.46564963778928
 20
-78.76136458320656
  0
LWPOLYLINE
  5
4B
330
17
100
AcDbEntity
  8
PTSP_KDB
100
AcDbPolyline
 90
4
 70
0
 10
-73.51151855076118
 20
-75.7157009603075
 10
-67.53435036221072
 20
-76.23863541679344
 10
-66.48848144923882
 20
-64.2842990396925
 10
-72.46564963778928
 20
-63.76136458320655
  0
LWPOLYLINE
  5
4C
330
17
100
AcDbEntity
  8
PTSP_KDB
100
AcDbPolyline
 90
4
 70
0
 10
-73.51151855076118
 20
-60.7157009603075
 10
-67.53435036221072
 20
-61.23863541679345
 10
-66.48848144923882
 20
-49.2842990396925
 10
-72.46564963778928
 20
-48.76136458320655
  0
LWPOLYLINE
  5
4D
330
17
100
AcDbEntity
  8
PTSP_KDB
100
AcDbPolyline
 90
4
 70
0
 10
-73.51151855076118
 20
-45.7157009603075
 10
-67.53435036221072
 20
-46.23863541679345
 10
-66.48848144923882
 20
-34.2842990396925
 10
-72.46564963778928
 20
-33.76136458320655
  0
LWPOLYLINE
  5
4E
330
17
100
AcDbEntity
  8
PTSP_KDB
100
AcDbPolyline
 90
4
 70
0
 10
-72.46564963778928
 20
-1.2386354167934481
 10
-66.48848144923882
 20
-0.7157009603074993
 10
-67.53435036221072
 20
11.238635416793448
 10
-73.51151855076118
 20
10.7157009603075
  0
LWPOLYLINE
  5
4F
330
17
100
AcDbEntity
  8
PTSP_KDB
100
AcDbPolyline
 90
4
 70
0
 10
-72.46564963778928
 20
13.761364583206552
 10
-66.48848144923882
 20
14.2842990396925
 10
-67.53435036221072
 20
26.23863541679345
 10
-73.51151855076118
 20
25.7157009603075
  0
LWPOLYLINE
  5
50
330
17
100
AcDbEntity
  8
PTSP_KDB
100
AcDbPolyline
 90
4
 70
0
 10
-63.51151855076119
 20
-90.7157009603075
 10
-57.53435036221071
 20
-91.23863541679344
 10
-56.48848144923881
 20
-79.2842990396925
 10
-62.46564963778929
 20
-78.76136458320656
  0
LWPOLYLINE
  5
51
330
17
100
AcDbEntity
  8
PTSP_KDB
100
AcDbPolyline
 90
4
 70
0
 10
-63.51151855076119
 20
-75.7157009603075
 10
-57.53435036221071
 20
-76.23863541679344
 10
-56.48848144923881
 20
-64.2842990396925
 10
-62.46564963778929
 20
-63.76136458320655
  0
LWPOLYLINE
  5
52
330
17
100
AcDbEntity
  8
PTSP_KDB
100
AcDbPolyline
 90
4
 70
0
 10
-63.51151855076119
 20
-60.7157009603075
 10
-57.53435036221071
 20
-61.23863541679345
 10
-56.48848144923881
 20
-49.2842990396925
 10
-62.46564963778929
 20
-48.76136458320655
  0
LWPOLYLINE
  5
53
330
17
100
AcDbEntity
  8
PTSP_KDB
100
AcDbPolyline
 90
4
 70
0
 10
-63.51151855076119
 20
-45.7157009603075
 10
-57.53435036221071
 20
-46.23863541679345
 10
-56.48848144923881
 20
-34.2842990396925
 10
-62.46564963778929
 20
-33.76136458320655
  0
LWPOLYLINE
  5
54
330
17
100
AcDbEntity
  8
PTSP_KDB
100
AcDbPolyline
 90
4
 70
0
 10
-62.46564963778929
 20
-1.2386354167934481
 10
-56.48848144923881
 20
-0.7157009603074993
 10
-57.53435036221071
 20
11.238635416793448
 10
-63.51151855076119
 20
10.7157009603075
  0
LWPOLYLINE
  5
55
330
17
100
AcDbEntity
  8
PTSP_KDB
100
AcDbPolyline
 90
4
 70
0
 10
-53.51151855076119
 20
-105.7157009603075
 10
-47.53435036221071
 20
-106.23863541679344
 10
-46.48848144923881
 20
-94.2842990396925
 10
-52.46564963778929
 20
-93.76136458320656
  0
LWPOLYLINE
  5
56
330
17
100
AcDbEntity
  8
PTSP_KDB
100
AcDbPolyline
 90
4
 70
0
 10
-53.51151855076119
 20
-90.7157009603075
 10
-47.53435036221071
 20
-91.23863541679344
 10
-46.48848144923881
 20
-79.2842990396925
 10
-52.46564963778929
 20
-78.76136458320656
  0
LWPOLYLINE
  5
57
330
17
100
AcDbEntity
  8
PTSP_KDB
100
AcDbPolyline
 90
4
 70
0
 10
-53.51151855076119
 20
-75.7157009603075
 10
-47.53435036221071
 20
-76.23863541679344
 10
-46.48848144923881
 20
-64.2842990396925
 10
-52.46564963778929
 20
-63.76136458320655
  0
LWPOLYLINE
  5
58
330
17
100
AcDbEntity
  8
PTSP_KDB
100
AcDbPolyline
 90
4
 70
0
 10
-53.51151855076119
 20
-60.7157009603075
 10
-47.53435036221071
 20
-61.23863541679345
 10
-46.48848144923881
 20
-49.2842990396925
 10
-52.46564963778929
 20
-48.76136458320655
  0
LWPOLYLINE
  5
59
330
17
100
AcDbEntity
  8
PTSP_KDB
100
AcDbPolyline
 90
4
 70
0
 10
-53.51151855076119
 20
-45.7157009603075
 10
-47.53435036221071
 20
-46.23863541679345
 10
-46.48848144923881
 20
-34.2842990396925
 10
-52.46564963778929
 20
-33.76136458320655
  0
LWPOLYLINE
  5
5A
330
17
100
AcDbEntity
  8
PTSP_KDB
100
AcDbPolyline
 90
4
 70
0
 10
-52.46564963778929
 20
-1.2386354167934481
 10
-46.48848144923881
 20
-0.7157009603074993
 10
-47.53435036221071
 20
11.238635416793448
 10
-53.51151855076119
 20
10.7157009603075
  0
LWPOLYLINE
  5
5B
330
17
100
AcDbEntity
  8
PTSP_KDB
100
AcDbPolyline
 90
4
 70
0
 10
-43.51151855076119
 20
-105.7157009603075
 10
-37.53435036221071
 20
-106.23863541679344
 10
-36.48848144923881
 20
-94.2842990396925
 10
-42.46564963778929
 20
-93.76136458320656
  0
LWPOLYLINE
  5
5C
330
17
100
AcDbEntity
  8
PTSP_KDB
100
AcDbPolyline
 90
4
 70
0
 10
-43.51151855076119
 20
-90.7157009603075
 10
-37.53435036221071
 20
-91.23863541679344
 10
-36.48848144923881
 20
-79.2842990396925
 10
-42.46564963778929
 20
-78.76136458320656
  0
LWPOLYLINE
  5
5D
330
17
100
AcDbEntity
  8
PTSP_KDB
100
AcDbPolyline
 90
4
 70
0
 10
-43.51151855076119
 20
-75.7157009603075
 10
-37.53435036221071
 20
-76.23863541679344
 10
-36.48848144923881
 20
-64.2842990396925
 10
-42.46564963778929
 20
-63.76136458320655
  0
LWPOLYLINE
  5
5E
330
17
100
AcDbEntity
  8
PTSP_KDB
100
AcDbPolyline
 90
4
 70
0
 10
-43.51151855076119
 20
-60.7157009603075
 10
-37.53435036221071
 20
-61.23863541679345
 10
-36.48848144923881
 20
-49.2842990396925
 10
-42.46564963778929
 20
-48.76136458320655
  0
LWPOLYLINE
  5
5F
330
17
100
AcDbEntity
  8
PTSP_KDB
100
AcDbPolyline
 90
4
 70
0
 10
-43.51151855076119
 20
-45.7157009603075
 10
-37.53435036221071
 20
-46.23863541679345
 10
-36.48848144923881
 20
-34.2842990396925
 10
-42.46564963778929
 20
-33.76136458320655
  0
LWPOLYLINE
  5
60
330
17
100
AcDbEntity
  8
PTSP_KDB
100
AcDbPolyline
 90
4
 70
0
 10
-42.46564963778929
 20
-1.2386354167934481
 10
-36.48848144923881
 20
-0.7157009603074993
 10
-37.53435036221071
 20
11.238635416793448
 10
-43.51151855076119
 20
10.7157009603075
  0
LWPOLYLINE
  5
61
330
17
100
AcDbEntity
  8
PTSP_KDB
100
AcDbPolyline
 90
4
 70
0
 10
-33.51151855076119
 20
-105.7157009603075
 10
-27.534350362210713
 20
-106.23863541679344
 10
-26.488481449238815
 20
-94.2842990396925
 10
-32.46564963778929
 20
-93.76136458320656
  0
LWPOLYLINE
  5
62
330
17
100
AcDbEntity
  8
PTSP_KDB
100
AcDbPolyline
 90
4
 70
0
 10
-33.51151855076119
 20
-90.7157009603075
 10
-27.534350362210713
 20
-91.23863541679344
 10
-26.488481449238815
 20
-79.2842990396925
 10
-32.46564963778929
 20
-78.76136458320656
  0
LWPOLYLINE
  5
63
330
17
100
AcDbEntity
  8
PTSP_KDB
100
AcDbPolyline
 90
4
 70
0
 10
-33.51151855076119
 20
-75.7157009603075
 10
-27.534350362210713
 20
-76.23863541679344
 10
-26.488481449238815
 20
-64.2842990396925
 10
-32.46564963778929
 20
-63.76136458320655
  0
LWPOLYLINE
  5
64
330
17
100
AcDbEntity
  8
PTSP_KDB
100
AcDbPolyline
 90
4
 70
0
 10
-33.51151855076119
 20
-60.7157009603075
 10
-27.534350362210713
 20
-61.23863541679345
 10
-26.488481449238815
 20
-49.2842990396925
 10
-32.46564963778929
 20
-48.76136458320655
  0
LWPOLYLINE
  5
65
330
17
100
AcDbEntity
  8
PTSP_KDB
100
AcDbPolyline
 90
4
 70
0
 10
-33.51151855076119
 20
-45.7157009603075
 10
-27.534350362210713
 20
-46.23863541679345
 10
-26.488481449238815
 20
-34.2842990396925
 10
-32.46564963778929
 20
-33.76136458320655
  0
LWPOLYLINE
  5
66
330
17
100
AcDbEntity
  8
PTSP_KDB
100
AcDbPolyline
 90
4
 70
0
 10
-32.46564963778929
 20
-1.2386354167934481
 10
-26.488481449238815
 20
-0.7157009603074993
 10
-27.534350362210713
 20
11.238635416793448
 10
-33.51151855076119
 20
10.7157009603075
  0
LWPOLYLINE
  5
67
330
17
100
AcDbEntity
  8
PTSP_KDB
100
AcDbPolyline
 90
4
 70
0
 10
-23.511518550761185
 20
-105.7157009603075
 10
-17.534350362210713
 20
-106.23863541679344
 10
-16.488481449238815
 20
-94.2842990396925
 10
-22.465649637789287
 20
-93.76136458320656
  0
LWPOLYLINE
  5
68
330
17
100
AcDbEntity
  8
PTSP_KDB
100
AcDbPolyline
 90
4
 70
0
 10
-23.511518550761185
 20
-90.7157009603075
 10
-17.534350362210713
 20
-91.23863541679344
 10
-16.488481449238815
 20
-79.2842990396925
 10
-22.465649637789287
 20
-78.76136458320656
  0
LWPOLYLINE
  5
69
330
17
100
AcDbEntity
  8
PTSP_KDB
100
AcDbPolyline
 90
4
 70
0
 10
-23.511518550761185
 20
-75.7157009603075
 10
-17.534350362210713
 20
-76.23863541679344
 10
-16.488481449238815
 20
-64.2842990396925
 10
-22.465649637789287
 20
-63.76136458320655
  0
LWPOLYLINE
  5
6A
330
17
100
AcDbEntity
  8
PTSP_KDB
100
AcDbPolyline
 90
4
 70
0
 10
-23.511518550761185
 20
-60.7157009603075
 10
-17.534350362210713
 20
-61.23863541679345
 10
-16.488481449238815
 20
-49.2842990396925
 10
-22.465649637789287
 20
-48.76136458320655
  0
LWPOLYLINE
  5
6B
330
17
100
AcDbEntity
  8
PTSP_KDB
100
AcDbPolyline
 90
4
 70
0
 10
-23.511518550761185
 20
-45.7157009603075
 10
-17.534350362210713
 20
-46.23863541679345
 10
-16.488481449238815
 20
-34.2842990396925
 10
-22.465649637789287
 20
-33.76136458320655
  0
LWPOLYLINE
  5
6C
330
17
100
AcDbEntity
  8
PTSP_KDB
100
AcDbPolyline
 90
4
 70
0
 10
-23.511518550761185
 20
-30.7157009603075
 10
-17.534350362210713
 20
-31.23863541679345
 10
-16.488481449238815
 20
-19.2842990396925
 10
-22.465649637789287
 20
-18.76136458320655
  0
LWPOLYLINE
  5
6D
330
17
100
AcDbEntity
  8
PTSP_KDB
100
AcDbPolyline
 90
4
 70
0
 10
-13.511518550761185
 20
-105.7157009603075
 10
-7.534350362210712
 20
-106.23863541679344
 10
-6.488481449238814
 20
-94.2842990396925
 10
-12.465649637789287
 20
-93.76136458320656
  0
LWPOLYLINE
  5
6E
330
17
100
AcDbEntity
  8
PTSP_KDB
100
AcDbPolyline
 90
4
 70
0
 10
-13.511518550761185
 20
-90.7157009603075
 10
-7.534350362210712
 20
-91.23863541679344
 10
-6.488481449238814
 20
-79.2842990396925
 10
-12.465649637789287
 20
-78.76136458320656
  0
LWPOLYLINE
  5
6F
330
17
100
AcDbEntity
  8
PTSP_KDB
100
AcDbPolyline
 90
4
 70
0
 10
-13.511518550761185
 20
-75.7157009603075
 10
-7.534350362210712
 20
-76.23863541679344
 10
-6.488481449238814
 20
-64.2842990396925
 10
-12.465649637789287
 20
-63.76136458320655
  0
LWPOLYLINE
  5
70
330
17
100
AcDbEntity
  8
PTSP_KDB
100
AcDbPolyline
 90
4
 70
0
 10
-13.511518550761185
 20
-60.7157009603075
 10
-7.534350362210712
 20
-61.23863541679345
 10
-6.488481449238814
 20
-49.2842990396925
 10
-12.465649637789287
 20
-48.76136458320655
  0
LWPOLYLINE
  5
71
330
17
100
AcDbEntity
  8
PTSP_KDB
100
AcDbPolyline
 90
4
 70
0
 10
-13.511518550761185
 20
-45.7157009603075
 10
-7.534350362210712
 20
-46.23863541679345
 10
-6.488481449238814
 20
-34.2842990396925
 10
-12.465649637789287
 20
-33.76136458320655
  0
LWPOLYLINE
  5
72
330
17
100
AcDbEntity
  8
PTSP_KDB
100
AcDbPolyline
 90
4
 70
0
 10
-13.511518550761185
 20
-30.7157009603075
 10
-7.534350362210712
 20
-31.23863541679345
 10
-6.488481449238814
 20
-19.2842990396925
 10
-12.465649637789287
 20
-18.76136458320655
  0
LWPOLYLINE
  5
73
330
17
100
AcDbEntity
  8
PTSP_KDB
100
AcDbPolyline
 90
4
 70
0
 10
-12.465649637789287
 20
13.761364583206552
 10
-6.488481449238814
 20
14.2842990396925
 10
-7.534350362210712
 20
26.23863541679345
 10
-13.511518550761185
 20
25.7157009603075
  0
LWPOLYLINE
  5
74
330
17
100
AcDbEntity
  8
PTSP_KDB
100
AcDbPolyline
 90
4
 70
0
 10
-12.465649637789287
 20
73.76136458320656
 10
-6.488481449238814
 20
74.2842990396925
 10
-7.534350362210712
 20
86.23863541679344
 10
-13.511518550761185
 20
85.7157009603075
  0
LWPOLYLINE
  5
75
330
17
100
AcDbEntity
  8
PTSP_KDB
100
AcDbPolyline
 90
4
 70
0
 10
-3.5115185507611857
 20
-90.7157009603075
 10
2.465649637789288
 20
-91.23863541679344
 10
3.5115185507611857
 20
-79.2842990396925
 10
-2.465649637789288
 20
-78.76136458320656
  0
LWPOLYLINE
  5
76
330
17
100
AcDbEntity
  8
PTSP_KDB
100
AcDbPolyline
 90
4
 70
0
 10
-3.5115185507611857
 20
-75.7157009603075
 10
2.465649637789288
 20
-76.23863541679344
 10
3.5115185507611857
 20
-64.2842990396925
 10
-2.465649637789288
 20
-63.76136458320655
  0
LWPOLYLINE
  5
77
330
17
100
AcDbEntity
  8
PTSP_KDB
100
AcDbPolyline
 90
4
 70
0
 10
-3.5115185507611857
 20
-60.7157009603075
 10
2.465649637789288
 20
-61.23863541679345
 10
3.5115185507611857
 20
-49.2842990396925
 10
-2.465649637789288
 20
-48.76136458320655
  0
LWPOLYLINE
  5
78
330
17
100
AcDbEntity
  8
PTSP_KDB
100
AcDbPolyline
 90
4
 70
0
 10
-3.5115185507611857
 20
-45.7157009603075
 10
2.465649637789288
 20
-46.23863541679345
 10
3.5115185507611857
 20
-34.2842990396925
 10
-2.465649637789288
 20
-33.76136458320655
  0
LWPOLYLINE
  5
79
330
17
100
AcDbEntity
  8
PTSP_KDB
100
AcDbPolyline
 90
4
 70
0
 10
-3.5115185507611857
 20
-30.7157009603075
 10
2.465649637789288
 20
-31.23863541679345
 10
3.5115185507611857
 20
-19.2842990396925
 10
-2.465649637789288
 20
-18.76136458320655
  0
LWPOLYLINE
  5
7A
330
17
100
AcDbEntity
  8
PTSP_KDB
100
AcDbPolyline
 90
4
 70
0
 10
-2.465649637789288
 20
13.761364583206552
 10
3.5115185507611857
 20
14.2842990396925
 10
2.465649637789288
 20
26.23863541679345
 10
-3.5115185507611857
 20
25.7157009603075
  0
LWPOLYLINE
  5
7B
330
17
100
AcDbEntity
  8
PTSP_KDB
100
AcDbPolyline
 90
4
 70
0
 10
-2.465649637789288
 20
28.76136458320655
 10
3.5115185507611857
 20
29.2842990396925
 10
2.465649637789288
 20
41.23863541679345
 10
-3.5115185507611857
 20
40.7157009603075
  0
LWPOLYLINE
  5
7C
330
17
100
AcDbEntity
  8
PTSP_KDB
100
AcDbPolyline
 90
4
 70
0
 10
-2.465649637789288
 20
43.76136458320655
 10
3.5115185507611857
 20
44.2842990396925
 10
2.465649637789288
 20
56.23863541679345
 10
-3.5115185507611857
 20
55.7157009603075
  0
LWPOLYLINE
  5
7D
330
17
100
AcDbEntity
  8
PTSP_KDB
100
AcDbPolyline
 90
4
 70
0
 10
-2.465649637789288
 20
58.76136458320655
 10
3.5115185507611857
 20
59.2842990396925
 10
2.465649637789288
 20
71.23863541679344
 10
-3.5115185507611857
 20
70.7157009603075
  0
LWPOLYLINE
  5
7E
330
17
100
AcDbEntity
  8
PTSP_KDB
100
AcDbPolyline
 90
4
 70
0
 10
-2.465649637789288
 20
73.76136458320656
 10
3.5115185507611857
 20
74.2842990396925
 10
2.465649637789288
 20
86.23863541679344
 10
-3.5115185507611857
 20
85.7157009603075
  0
LWPOLYLINE
  5
7F
330
17
100
AcDbEntity
  8
PTSP_KDB
100
AcDbPolyline
 90
4
 70
0
 10
6.488481449238814
 20
-90.7157009603075
 10
12.465649637789287
 20
-91.23863541679344
 10
13.511518550761185
 20
-79.2842990396925
 10
7.534350362210712
 20
-78.76136458320656
  0
LWPOLYLINE
  5
80
330
17
100
AcDbEntity
  8
PTSP_KDB
100
AcDbPolyline
 90
4
 70
0
 10
6.488481449238814
 20
-75.7157009603075
 10
12.465649637789287
 20
-76.23863541679344
 10
13.511518550761185
 20
-64.2842990396925
 10
7.534350362210712
 20
-63.76136458320655
  0
LWPOLYLINE
  5
81
330
17
100
AcDbEntity
  8
PTSP_KDB
100
AcDbPolyline
 90
4
 70
0
 10
6.488481449238814
 20
-60.7157009603075
 10
12.465649637789287
 20
-61.23863541679345
 10
13.511518550761185
 20
-49.2842990396925
 10
7.534350362210712
 20
-48.76136458320655
  0
LWPOLYLINE
  5
82
330
17
100
AcDbEntity
  8
PTSP_KDB
100
AcDbPolyline
 90
4
 70
0
 10
6.488481449238814
 20
-45.7157009603075
 10
12.465649637789287
 20
-46.23863541679345
 10
13.511518550761185
 20
-34.2842990396925
 10
7.534350362210712
 20
-33.76136458320655
  0
LWPOLYLINE
  5
83
330
17
100
AcDbEntity
  8
PTSP_KDB
100
AcDbPolyline
 90
4
 70
0
 10
6.488481449238814
 20
-30.7157009603075
 10
12.465649637789287
 20
-31.23863541679345
 10
13.511518550761185
 20
-19.2842990396925
 10
7.534350362210712
 20
-18.76136458320655
  0
LWPOLYLINE
  5
84
330
17
100
AcDbEntity
  8
PTSP_KDB
100
AcDbPolyline
 90
4
 70
0
 10
7.534350362210712
 20
13.761364583206552
 10
13.511518550761185
 20
14.2842990396925
 10
12.465649637789287
 20
26.23863541679345
 10
6.488481449238814
 20
25.7157009603075
  0
LWPOLYLINE
  5
85
330
17
100
AcDbEntity
  8
PTSP_KDB
100
AcDbPolyline
 90
4
 70
0
 10
7.534350362210712
 20
28.76136458320655
 10
13.511518550761185
 20
29.2842990396925
 10
12.465649637789287
 20
41.23863541679345
 10
6.488481449238814
 20
40.7157009603075
  0
LWPOLYLINE
  5
86
330
17
100
AcDbEntity
  8
PTSP_KDB
100
AcDbPolyline
 90
4
 70
0
 10
7.534350362210712
 20
43.76136458320655
 10
13.511518550761185
 20
44.2842990396925
 10
12.465649637789287
 20
56.23863541679345
 10
6.488481449238814
 20
55.7157009603075
  0
LWPOLYLINE
  5
87
330
17
100
AcDbEntity
  8
PTSP_KDB
100
AcDbPolyline
 90
4
 70
0
 10
7.534350362210712
 20
58.76136458320655
 10
13.511518550761185
 20
59.2842990396925
 10
12.465649637789287
 20
71.23863541679344
 10
6.488481449238814
 20
70.7157009603075
  0
LWPOLYLINE
  5
88
330
17
100
AcDbEntity
  8
PTSP_KDB
100
AcDbPolyline
 90
4
 70
0
 10
7.534350362210712
 20
73.76136458320656
 10
13.511518550761185
 20
74.2842990396925
 10
12.465649637789287
 20
86.23863541679344
 10
6.488481449238814
 20
85.7157009603075
  0
LWPOLYLINE
  5
89
330
17
100
AcDbEntity
  8
PTSP_KDB
100
AcDbPolyline
 90
4
 70
0
 10
7.534350362210712
 20
88.76136458320656
 10
13.511518550761185
 20
89.2842990396925
 10
12.465649637789287
 20
101.23863541679344
 10
6.488481449238814
 20
100.7157009603075
  0
LWPOLYLINE
  5
8A
330
17
100
AcDbEntity
  8
PTSP_KDB
100
AcDbPolyline
 90
4
 70
0
 10
16.488481449238815
 20
-90.7157009603075
 10
22.465649637789287
 20
-91.23863541679344
 10
23.511518550761185
 20
-79.2842990396925
 10
17.534350362210713
 20
-78.76136458320656
  0
LWPOLYLINE
  5
8B
330
17
100
AcDbEntity
  8
PTSP_KDB
100
AcDbPolyline
 90
4
 70
0
 10
16.488481449238815
 20
-75.7157009603075
 10
22.465649637789287
 20
-76.23863541679344
 10
23.511518550761185
 20
-64.2842990396925
 10
17.534350362210713
 20
-63.76136458320655
  0
LWPOLYLINE
  5
8C
330
17
100
AcDbEntity
  8
PTSP_KDB
100
AcDbPolyline
 90
4
 70
0
 10
16.488481449238815
 20
-60.7157009603075
 10
22.465649637789287
 20
-61.23863541679345
 10
23.511518550761185
 20
-49.2842990396925
 10
17.534350362210713
 20
-48.76136458320655
  0
LWPOLYLINE
  5
8D
330
17
100
AcDbEntity
  8
PTSP_KDB
100
AcDbPolyline
 90
4
 70
0
 10
16.488481449238815
 20
-45.7157009603075
 10
22.465649637789287
 20
-46.23863541679345
 10
23.511518550761185
 20
-34.2842990396925
 10
17.534350362210713
 20
-33.76136458320655
  0
LWPOLYLINE
  5
8E
330
17
100
AcDbEntity
  8
PTSP_KDB
100
AcDbPolyline
 90
4
 70
0
 10
16.488481449238815
 20
-30.7157009603075
 10
22.465649637789287
 20
-31.23863541679345
 10
23.511518550761185
 20
-19.2842990396925
 10
17.534350362210713
 20
-18.76136458320655
  0
LWPOLYLINE
  5
8F
330
17
100
AcDbEntity
  8
PTSP_KDB
100
AcDbPolyline
 90
4
 70
0
 10
16.488481449238815
 20
-15.7157009603075
 10
22.465649637789287
 20
-16.23863541679345
 10
23.511518550761185
 20
-4.284299039692501
 10
17.534350362210713
 20
-3.761364583206552
  0
LWPOLYLINE
  5
90
330
17
100
AcDbEntity
  8
PTSP_KDB
100
AcDbPolyline
 90
4
 70
0
 10
17.534350362210713
 20
28.76136458320655
 10
23.511518550761185
 20
29.2842990396925
 10
22.465649637789287
 20
41.23863541679345
 10
16.488481449238815
 20
40.7157009603075
  0
LWPOLYLINE
  5
91
330
17
100
AcDbEntity
  8
PTSP_KDB
100
AcDbPolyline
 90
4
 70
0
 10
17.534350362210713
 20
43.76136458320655
 10
23.511518550761185
 20
44.2842990396925
 10
22.465649637789287
 20
56.23863541679345
 10
16.488481449238815
 20
55.7157009603075
  0
LWPOLYLINE
  5
92
330
17
100
AcDbEntity
  8
PTSP_KDB
100
AcDbPolyline
 90
4
 70
0
 10
17.534350362210713
 20
58.76136458320655
 10
23.511518550761185
 20
59.2842990396925
 10
22.465649637789287
 20
71.23863541679344
 10
16.488481449238815
 20
70.7157009603075
  0
LWPOLYLINE
  5
93
330
17
100
AcDbEntity
  8
PTSP_KDB
100
AcDbPolyline
 90
4
 70
0
 10
17.534350362210713
 20
73.76136458320656
 10
23.511518550761185
 20
74.2842990396925
 10
22.465649637789287
 20
86.23863541679344
 10
16.488481449238815
 20
85.7157009603075
  0
LWPOLYLINE
  5
94
330
17
100
AcDbEntity
  8
PTSP_KDB
100
AcDbPolyline
 90
4
 70
0
 10
26.488481449238815
 20
-90.7157009603075
 10
32.46564963778929
 20
-91.23863541679344
 10
33.51151855076119
 20
-79.2842990396925
 10
27.534350362210713
 20
-78.76136458320656
  0
LWPOLYLINE
  5
95
330
17
100
AcDbEntity
  8
PTSP_KDB
100
AcDbPolyline
 90
4
 70
0
 10
26.488481449238815
 20
-75.7157009603075
 10
32.46564963778929
 20
-76.23863541679344
 10
33.51151855076119
 20
-64.2842990396925
 10
27.534350362210713
 20
-63.76136458320655
  0
LWPOLYLINE
  5
96
330
17
100
AcDbEntity
  8
PTSP_KDB
100
AcDbPolyline
 90
4
 70
0
 10
26.488481449238815
 20
-60.7157009603075
 10
32.46564963778929
 20
-61.23863541679345
 10
33.51151855076119
 20
-49.2842990396925
 10
27.534350362210713
 20
-48.76136458320655
  0
LWPOLYLINE
  5
97
330
17
100
AcDbEntity
  8
PTSP_KDB
100
AcDbPolyline
 90
4
 70
0
 10
26.488481449238815
 20
-45.7157009603075
 10
32.46564963778929
 20
-46.23863541679345
 10
33.51151855076119
 20
-34.2842990396925
 10
27.534350362210713
 20
-33.76136458320655
  0
LWPOLYLINE
  5
98
330
17
100
AcDbEntity
  8
PTSP_KDB
100
AcDbPolyline
 90
4
 70
0
 10
26.488481449238815
 20
-30.7157009603075
 10
32.46564963778929
 20
-31.23863541679345
 10
33.51151855076119
 20
-19.2842990396925
 10
27.534350362210713
 20
-18.76136458320655
  0
LWPOLYLINE
  5
99
330
17
100
AcDbEntity
  8
PTSP_KDB
100
AcDbPolyline
 90
4
 70
0
 10
26.488481449238815
 20
-15.7157009603075
 10
32.46564963778929
 20
-16.23863541679345
 10
33.51151855076119
 20
-4.284299039692501
 10
27.534350362210713
 20
-3.761364583206552
  0
LWPOLYLINE
  5
9A
330
17
100
AcDbEntity
  8
PTSP_KDB
100
AcDbPolyline
 90
4
 70
0
 10
27.534350362210713
 20
28.76136458320655
 10
33.51151855076119
 20
29.2842990396925
 10
32.46564963778929
 20
41.23863541679345
 10
26.488481449238815
 20
40.7157009603075
  0
LWPOLYLINE
  5
9B
330
17
100
AcDbEntity
  8
PTSP_KDB
100
AcDbPolyline
 90
4
 70
0
 10
27.534350362210713
 20
43.76136458320655
 10
33.51151855076119
 20
44.2842990396925
 10
32.46564963778929
 20
56.23863541679345
 10
26.488481449238815
 20
55.7157009603075
  0
LWPOLYLINE
  5
9C
330
17
100
AcDbEntity
  8
PTSP_KDB
100
AcDbPolyline
 90
4
 70
0
 10
27.534350362210713
 20
58.76136458320655
 10
33.51151855076119
 20
59.2842990396925
 10
32.46564963778929
 20
71.23863541679344
 10
26.488481449238815
 20
70.7157009603075
  0
LWPOLYLINE
  5
9D
330
17
100
AcDbEntity
  8
PTSP_KDB
100
AcDbPolyline
 90
4
 70
0
 10
27.534350362210713
 20
73.76136458320656
 10
33.51151855076119
 20
74.2842990396925
 10
32.46564963778929
 20
86.23863541679344
 10
26.488481449238815
 20
85.7157009603075
  0
LWPOLYLINE
  5
9E
330
17
100
AcDbEntity
  8
PTSP_KDB
100
AcDbPolyline
 90
4
 70
0
 10
36.48848144923881
 20
-30.7157009603075
 10
42.46564963778929
 20
-31.23863541679345
 10
43.51151855076119
 20
-19.2842990396925
 10
37.53435036221071
 20
-18.76136458320655
  0
LWPOLYLINE
  5
9F
330
17
100
AcDbEntity
  8
PTSP_KDB
100
AcDbPolyline
 90
4
 70
0
 10
36.48848144923881
 20
-15.7157009603075
 10
42.46564963778929
 20
-16.23863541679345
 10
43.51151855076119
 20
-4.284299039692501
 10
37.53435036221071
 20
-3.761364583206552
  0
LWPOLYLINE
  5
A0
330
17
100
AcDbEntity
  8
PTSP_KDB
100
AcDbPolyline
 90
4
 70
0
 10
37.53435036221071
 20
28.76136458320655
 10
43.51151855076119
 20
29.2842990396925
 10
42.46564963778929
 20
41.23863541679345
 10
36.48848144923881
 20
40.7157009603075
  0
LWPOLYLINE
  5
A1
330
17
100
AcDbEntity
  8
PTSP_KDB
100
AcDbPolyline
 90
4
 70
0
 10
37.53435036221071
 20
43.76136458320655
 10
43.51151855076119
 20
44.2842990396925
 10
42.46564963778929
 20
56.23863541679345
 10
36.48848144923881
 20
55.7157009603075
  0
LWPOLYLINE
  5
A2
330
17
100
AcDbEntity
  8
PTSP_KDB
100
AcDbPolyline
 90
4
 70
0
 10
37.53435036221071
 20
58.76136458320655
 10
43.51151855076119
 20
59.2842990396925
 10
42.46564963778929
 20
71.23863541679344
 10
36.48848144923881
 20
70.7157009603075
  0
LWPOLYLINE
  5
A3
330
17
100
AcDbEntity
  8
PTSP_KDB
100
AcDbPolyline
 90
4
 70
0
 10
37.53435036221071
 20
73.76136458320656
 10
43.51151855076119
 20
74.2842990396925
 10
42.46564963778929
 20
86.23863541679344
 10
36.48848144923881
 20
85.7157009603075
  0
LWPOLYLINE
  5
A4
330
17
100
AcDbEntity
  8
PTSP_KDB
100
AcDbPolyline
 90
4
 70
0
 10
46.48848144923881
 20
-30.7157009603075
 10
52.46564963778929
 20
-31.23863541679345
 10
53.51151855076119
 20
-19.2842990396925
 10
47.53435036221071
 20
-18.76136458320655
  0
LWPOLYLINE
  5
A5
330
17
100
AcDbEntity
  8
PTSP_KDB
100
AcDbPolyline
 90
4
 70
0
 10
46.48848144923881
 20
-15.7157009603075
 10
52.46564963778929
 20
-16.23863541679345
 10
53.51151855076119
 20
-4.284299039692501
 10
47.53435036221071
 20
-3.761364583206552
  0
LWPOLYLINE
  5
A6
330
17
100
AcDbEntity
  8
PTSP_KDB
100
AcDbPolyline
 90
4
 70
0
 10
47.53435036221071
 20
28.76136458320655
 10
53.51151855076119
 20
29.2842990396925
 10
52.46564963778929
 20
41.23863541679345
 10
46.48848144923881
 20
40.7157009603075
  0
LWPOLYLINE
  5
A7
330
17
100
AcDbEntity
  8
PTSP_KDB
100
AcDbPolyline
 90
4
 70
0
 10
47.53435036221071
 20
43.76136458320655
 10
53.51151855076119
 20
44.2842990396925
 10
52.46564963778929
 20
56.23863541679345
 10
46.48848144923881
 20
55.7157009603075
  0
LWPOLYLINE
  5
A8
330
17
100
AcDbEntity
  8
PTSP_KDB
100
AcDbPolyline
 90
4
 70
0
 10
47.53435036221071
 20
58.76136458320655
 10
53.51151855076119
 20
59.2842990396925
 10
52.46564963778929
 20
71.23863541679344
 10
46.48848144923881
 20
70.7157009603075
  0
LWPOLYLINE
  5
A9
330
17
100
AcDbEntity
  8
PTSP_KDB
100
AcDbPolyline
 90
4
 70
0
 10
47.53435036221071
 20
73.76136458320656
 10
53.51151855076119
 20
74.2842990396925
 10
52.46564963778929
 20
86.23863541679344
 10
46.48848144923881
 20
85.7157009603075
  0
LWPOLYLINE
  5
AA
330
17
100
AcDbEntity
  8
PTSP_KDB
100
AcDbPolyline
 90
4
 70
0
 10
56.48848144923881
 20
-30.7157009603075
 10
62.46564963778929
 20
-31.23863541679345
 10
63.51151855076119
 20
-19.2842990396925
 10
57.53435036221071
 20
-18.76136458320655
  0
LWPOLYLINE
  5
AB
330
17
100
AcDbEntity
  8
PTSP_KDB
100
AcDbPolyline
 90
4
 70
0
 10
56.48848144923881
 20
-15.7157009603075
 10
62.46564963778929
 20
-16.23863541679345
 10
63.51151855076119
 20
-4.284299039692501
 10
57.53435036221071
 20
-3.761364583206552
  0
LWPOLYLINE
  5
AC
330
17
100
AcDbEntity
  8
PTSP_KDB
100
AcDbPolyline
 90
4
 70
0
 10
57.53435036221071
 20
28.76136458320655
 10
63.51151855076119
 20
29.2842990396925
 10
62.46564963778929
 20
41.23863541679345
 10
56.48848144923881
 20
40.7157009603075
  0
LWPOLYLINE
  5
AD
330
17
100
AcDbEntity
  8
PTSP_KDB
100
AcDbPolyline
 90
4
 70
0
 10
57.53435036221071
 20
43.76136458320655
 10
63.51151855076119
 20
44.2842990396925
 10
62.46564963778929
 20
56.23863541679345
 10
56.48848144923881
 20
55.7157009603075
  0
LWPOLYLINE
  5
AE
330
17
100
AcDbEntity
  8
PTSP_KDB
100
AcDbPolyline
 90
4
 70
0
 10
57.53435036221071
 20
58.76136458320655
 10
63.51151855076119
 20
59.2842990396925
 10
62.46564963778929
 20
71.23863541679344
 10
56.48848144923881
 20
70.7157009603075
  0
LWPOLYLINE
  5
AF
330
17
100
AcDbEntity
  8
PTSP_KDB
100
AcDbPolyline
 90
4
 70
0
 10
66.48848144923882
 20
-30.7157009603075
 10
72.46564963778928
 20
-31.23863541679345
 10
73.51151855076118
 20
-19.2842990396925
 10
67.53435036221072
 20
-18.76136458320655
  0
LWPOLYLINE
  5
B0
330
17
100
AcDbEntity
  8
PTSP_KDB
100
AcDbPolyline
 90
4
 70
0
 10
66.48848144923882
 20
-15.7157009603075
 10
72.46564963778928
 20
-16.23863541679345
 10
73.51151855076118
 20
-4.284299039692501
 10
67.53435036221072
 20
-3.761364583206552
  0
LWPOLYLINE
  5
B1
330
17
100
AcDbEntity
  8
PTSP_KDB
100
AcDbPolyline
 90
4
 70
0
 10
67.53435036221072
 20
-1.2386354167934481
 10
73.51151855076118
 20
-0.7157009603074993
 10
72.46564963778928
 20
11.238635416793448
 10
66.48848144923882
 20
10.7157009603075
  0
LWPOLYLINE
  5
B2
330
17
100
AcDbEntity
  8
PTSP_KDB
100
AcDbPolyline
 90
4
 70
0
 10
67.53435036221072
 20
43.76136458320655
 10
73.51151855076118
 20
44.2842990396925
 10
72.46564963778928
 20
56.23863541679345
 10
66.48848144923882
 20
55.7157009603075
  0
LWPOLYLINE
  5
B3
330
17
100
AcDbEntity
  8
PTSP_KDB
100
AcDbPolyline
 90
4
 70
0
 10
67.53435036221072
 20
58.76136458320655
 10
73.51151855076118
 20
59.2842990396925
 10
72.46564963778928
 20
71.23863541679344
 10
66.48848144923882
 20
70.7157009603075
  0
LWPOLYLINE
  5
B4
330
17
100
AcDbEntity
  8
PTSP_KDB
100
AcDbPolyline
 90
4
 70
0
 10
76.48848144923882
 20
-30.7157009603075
 10
82.46564963778928
 20
-31.23863541679345
 10
83.51151855076118
 20
-19.2842990396925
 10
77.53435036221072
 20
-18.76136458320655
  0
LWPOLYLINE
  5
B5
330
17
100
AcDbEntity
  8
PTSP_KDB
100
AcDbPolyline
 90
4
 70
0
 10
76.48848144923882
 20
-15.7157009603075
 10
82.46564963778928
 20
-16.23863541679345
 10
83.51151855076118
 20
-4.284299039692501
 10
77.53435036221072
 20
-3.761364583206552
  0
LWPOLYLINE
  5
B6
330
17
100
AcDbEntity
  8
PTSP_KDB
100
AcDbPolyline
 90
4
 70
0
 10
77.53435036221072
 20
-1.2386354167934481
 10
83.51151855076118
 20
-0.7157009603074993
 10
82.46564963778928
 20
11.238635416793448
 10
76.48848144923882
 20
10.7157009603075
  0
LWPOLYLINE
  5
B7
330
17
100
AcDbEntity
  8
PTSP_KDB
100
AcDbPolyline
 90
4
 70
0
 10
77.53435036221072
 20
43.76136458320655
 10
83.51151855076118
 20
44.2842990396925
 10
82.46564963778928
 20
56.23863541679345
 10
76.48848144923882
 20
55.7157009603075
  0
LWPOLYLINE
  5
B8
330
17
100
AcDbEntity
  8
PTSP_KDB
100
AcDbPolyline
 90
4
 70
0
 10
77.53435036221072
 20
58.76136458320655
 10
83.51151855076118
 20
59.2842990396925
 10
82.46564963778928
 20
71.23863541679344
 10
76.48848144923882
 20
70.7157009603075
  0
LWPOLYLINE
  5
B9
330
17
100
AcDbEntity
  8
PTSP_KDB
100
AcDbPolyline
 90
4
 70
0
 10
86.48848144923882
 20
-60.7157009603075
 10
92.46564963778928
 20
-61.23863541679345
 10
93.51151855076118
 20
-49.2842990396925
 10
87.53435036221072
 20
-48.76136458320655
  0
LWPOLYLINE
  5
BA
330
17
100
AcDbEntity
  8
PTSP_KDB
100
AcDbPolyline
 90
4
 70
0
 10
86.48848144923882
 20
-45.7157009603075
 10
92.46564963778928
 20
-46.23863541679345
 10
93.51151855076118
 20
-34.2842990396925
 10
87.53435036221072
 20
-33.76136458320655
  0
LWPOLYLINE
  5
BB
330
17
100
AcDbEntity
  8
PTSP_KDB
100
AcDbPolyline
 90
4
 70
0
 10
86.48848144923882
 20
-30.7157009603075
 10
92.46564963778928
 20
-31.23863541679345
 10
93.51151855076118
 20
-19.2842990396925
 10
87.53435036221072
 20
-18.76136458320655
  0
LWPOLYLINE
  5
BC
330
17
100
AcDbEntity
  8
PTSP_KDB
100
AcDbPolyline
 90
4
 70
0
 10
86.48848144923882
 20
-15.7157009603075
 10
92.46564963778928
 20
-16.23863541679345
 10
93.51151855076118
 20
-4.284299039692501
 10
87.53435036221072
 20
-3.761364583206552
  0
LWPOLYLINE
  5
BD
330
17
100
AcDbEntity
  8
PTSP_KDB
100
AcDbPolyline
 90
4
 70
0
 10
87.53435036221072
 20
-1.2386354167934481
 10
93.51151855076118
 20
-0.7157009603074993
 10
92.46564963778928
 20
11.238635416793448
 10
86.48848144923882
 20
10.7157009603075
  0
LWPOLYLINE
  5
BE
330
17
100
AcDbEntity
  8
PTSP_KDB
100
AcDbPolyline
 90
4
 70
0
 10
87.53435036221072
 20
43.76136458320655
 10
93.51151855076118
 20
44.2842990396925
 10
92.46564963778928
 20
56.23863541679345
 10
86.48848144923882
 20
55.7157009603075
  0
LWPOLYLINE
  5
BF
330
17
100
AcDbEntity
  8
PTSP_KDB
100
AcDbPolyline
 90
4
 70
0
 10
96.48848144923882
 20
-30.7157009603075
 10
102.46564963778928
 20
-31.23863541679345
 10
103.51151855076118
 20
-19.2842990396925
 10
97.53435036221072
 20
-18.76136458320655
  0
LWPOLYLINE
  5
C0
330
17
100
AcDbEntity
  8
PTSP_KDB
100
AcDbPolyline
 90
4
 70
0
 10
96.48848144923882
 20
-15.7157009603075
 10
102.46564963778928
 20
-16.23863541679345
 10
103.51151855076118
 20
-4.284299039692501
 10
97.53435036221072
 20
-3.761364583206552
  0
LWPOLYLINE
  5
C1
330
17
100
AcDbEntity
  8
PTSP_KDB
100
AcDbPolyline
 90
4
 70
0
 10
97.53435036221072
 20
43.76136458320655
 10
103.51151855076118
 20
44.2842990396925
 10
102.46564963778928
 20
56.23863541679345
 10
96.48848144923882
 20
55.7157009603075
  0
LWPOLYLINE
  5
C2
330
17
100
AcDbEntity
  8
PTSP_KDB
100
AcDbPolyline
 90
4
 70
0
 10
107.53435036221072
 20
-1.2386354167934481
 10
113.51151855076118
 20
-0.7157009603074993
 10
112.46564963778928
 20
11.238635416793448
 10
106.48848144923882
 20
10.7157009603075
  0
ENDSEC
  0
SECTION
  2
OBJECTS
  0
DICTIONARY
  5
A
330
0
100
AcDbDictionary
281
1
  3
ACAD_COLOR
350
B
  3
ACAD_GROUP
350
C
  3
ACAD_LAYOUT
350
D
  3
ACAD_MATERIAL
350
E
  3
ACAD_MLEADERSTYLE
350
F
  3
ACAD_MLINESTYLE
350
10
  3
ACAD_PLOTSETTINGS
350
11
  3
ACAD_PLOTSTYLENAME
350
12
  3
ACAD_SCALELIST
350
14
  3
ACAD_TABLESTYLE
350
15
  3
ACAD_VISUALSTYLE
350
16
  3
EZDXF_META
350
2D
  0
DICTIONARY
  5
B
330
A
100
AcDbDictionary
281
1
  0
DICTIONARY
  5
C
330
A
100
AcDbDictionary
281
1
  0
DICTIONARY
  5
D
330
A
100
AcDbDictionary
281
1
  3
Model
350
1A
  3
Layout1
350
1E
  0
DICTIONARY
  5
E
330
A
100
AcDbDictionary
281
1
  3
ByBlock
350
1F
  3
ByLayer
350
20
  3
Global
350
21
  0
DICTIONARY
  5
F
330
A
100
AcDbDictionary
281
1
  3
Standard
350
2C
  0
DICTIONARY
  5
10
330
A
100
AcDbDictionary
281
1
  3
Standard
350
22
  0
DICTIONARY
  5
11
330
A
100
AcDbDictionary
281
1
  0
ACDBDICTIONARYWDFLT
  5
12
330
A
100
AcDbDictionary
281
1
  3
Normal
350
13
100
AcDbDictionaryWithDefault
340
13
  0
ACDBPLACEHOLDER
  5
13
330
12
  0
DICTIONARY
  5
14
330
A
100
AcDbDictionary
281
1
  0
DICTIONARY
  5
15
330
A
100
AcDbDictionary
281
1
  0
DICTIONARY
  5
16
330
A
100
AcDbDictionary
281
1
  0
LAYOUT
  5
1A
330
D
100
AcDbPlotSettings
  1

  4
A3
  6

 40
7.5
 41
20.0
 42
7.5
 43
20.0
 44
420.0
 45
297.0
 46
0.0
 47
0.0
 48
0.0
 49
0.0
140
0.0
141
0.0
142
1.0
143
1.0
 70
1024
 72
1
 73
0
 74
5
  7

 75
16
 76
0
 77
2
 78
300
147
1.0
148
0.0
149
0.0
100
AcDbLayout
  1
Model
 70
1
 71
0
 10
0.0
 20
0.0
 11
420.0
 21
297.0
 12
0.0
 22
0.0
 32
0.0
 14
1e+20
 24
1e+20
 34
1e+20
 15
-1e+20
 25
-1e+20
 35
-1e+20
146
0.0
 13
0.0
 23
0.0
 33
0.0
 16
1.0
 26
0.0
 36
0.0
 17
0.0
 27
1.0
 37
0.0
 76
1
330
17
  0
LAYOUT
  5
1E
330
D
100
AcDbPlotSettings
  1

  4
A3
  6

 40
7.5
 41
20.0
 42
7.5
 43
20.0
 44
420.0
 45
297.0
 46
0.0
 47
0.0
 48
0.0
 49
0.0
140
0.0
141
0.0
142
1.0
143
1.0
 70
0
 72
1
 73
0
 74
5
  7

 75
16
 76
0
 77
2
 78
300
147
1.0
148
0.0
149
0.0
100
AcDbLayout
  1
Layout1
 70
1
 71
1
 10
0.0
 20
0.0
 11
420.0
 21
297.0
 12
0.0
 22
0.0
 32
0.0
 14
1e+20
 24
1e+20
 34
1e+20
 15
-1e+20
 25
-1e+20
 35
-1e+20
146
0.0
 13
0.0
 23
0.0
 33
0.0
 16
1.0
 26
0.0
 36
0.0
 17
0.0
 27
1.0
 37
0.0
 76
1
330
1B
  0
MATERIAL
  5
1F
102
{ACAD_REACTORS
330
E
102
}
330
E
100
AcDbMaterial
  1
ByBlock
  2

 70
0
 40
1.0
 71
1
 41
1.0
 91
-1023410177
 42
1.0
 72
1
  3

 73
1
 74
1
 75
1
 44
0.5
 73
0
 45
1.0
 46
1.0
 77
1
  4

 78
1
 79
1
170
1
 48
1.0
171
1
  6

172
1
173
1
174
1
140
1.0
141
1.0
175
1
  7

176
1
177
1
178
1
143
1.0
179
1
  8

270
1
271
1
272
1
145
1.0
146
1.0
273
1
  9

274
1
275
1
276
1
 42
1.0
 72
1
  3

 73
1
 74
1
 75
1
 94
63
  0
MATERIAL
  5
20
102
{ACAD_REACTORS
330
E
102
}
330
E
100
AcDbMaterial
  1
ByLayer
  2

 70
0
 40
1.0
 71
1
 41
1.0
 91
-1023410177
 42
1.0
 72
1
  3

 73
1
 74
1
 75
1
 44
0.5
 73
0
 45
1.0
 46
1.0
 77
1
  4

 78
1
 79
1
170
1
 48
1.0
171
1
  6

172
1
173
1
174
1
140
1.0
141
1.0
175
1
  7

176
1
177
1
178
1
143
1.0
179
1
  8

270
1
271
1
272
1
145
1.0
146
1.0
273
1
  9

274
1
275
1
276
1
 42
1.0
 72
1
  3

 73
1
 74
1
 75
1
 94
63
  0
MATERIAL
  5
21
102
{ACAD_REACTORS
330
E
102
}
330
E
100
AcDbMaterial
  1
Global
  2

 70
0
 40
1.0
 71
1
 41
1.0
 91
-1023410177
 42
1.0
 72
1
  3

 73
1
 74
1
 75
1
 44
0.5
 73
0
 45
1.0
 46
1.0
 77
1
  4

 78
1
 79
1
170
1
 48
1.0
171
1
  6

172
1
173
1
174
1
140
1.0
141
1.0
175
1
  7

176
1
177
1
178
1
143
1.0
179
1
  8

270
1
271
1
272
1
145
1.0
146
1.0
273
1
  9

274
1
275
1
276
1
 42
1.0
 72
1
  3

 73
1
 74
1
 75
1
 94
63
  0
MLINESTYLE
  5
22
102
{ACAD_REACTORS
330
10
102
}
330
10
100
AcDbMlineStyle
  2
Standard
 70
0
  3

 62
256
 51
90.0
 52
90.0
 71
2
 49
0.5
 62
256
  6
BYLAYER
 49
-0.5
 62
256
  6
BYLAYER
  0
MLEADERSTYLE
  5
2C
102
{ACAD_REACTORS
330
F
102
}
330
F
100
AcDbMLeaderStyle
179
2
170
2
171
1
172
0
 90
2
 40
0.0
 41
0.0
173
1
 91
-1056964608
 92
-2
290
1
 42
2.0
291
1
 43
8.0
  3
Standard
 44
4.0
300

342
29
174
1
175
1
176
0
178
1
 93
-1056964608
 45
4.0
292
0
297
0
 46
4.0
 94
-1056964608
 47
1.0
 49
1.0
140
1.0
294
1
141
0.0
177
0
142
1.0
295
0
296
0
143
3.75
271
0
272
9
273
9
  0
DICTIONARY
  5
2D
330
A
100
AcDbDictionary
280
1
281
1
  3
CREATED_BY_EZDXF
350
2E
  3
WRITTEN_BY_EZDXF
350
C5
  0
DICTIONARYVAR
  5
2E
330
2D
100
DictionaryVariables
280
0
  1
1.4.4 @ 2026-07-08T08:12:49.399298+00:00
  0
DICTIONARYVAR
  5
C5
330
2D
100
DictionaryVariables
280
0
  1
1.4.4 @ 2026-07-08T08:13:03.110098+00:00
  0
ENDSEC
  0
EOF
